<?xml version="1.0" encoding="UTF-8"?>
<!DOCTYPE svg PUBLIC "-//W3C//DTD SVG 1.1//EN" "http://www.w3.org/Graphics/SVG/1.1/DTD/svg11.dtd">
<svg xmlns="http://www.w3.org/2000/svg" version="1.1" width="2000px" height="1721px" style="shape-rendering:geometricPrecision; text-rendering:geometricPrecision; image-rendering:optimizeQuality; fill-rule:evenodd; clip-rule:evenodd" xmlns:xlink="http://www.w3.org/1999/xlink">
<g><path style="opacity:0.89" fill="#000000" d="M 1918.5,-0.5 C 1927.83,-0.5 1937.17,-0.5 1946.5,-0.5C 1974.68,7.682 1992.35,26.0153 1999.5,54.5C 1999.5,62.5 1999.5,70.5 1999.5,78.5C 1988.35,117.599 1962.35,135.766 1921.5,133C 1886.17,124.836 1867.17,102.669 1864.5,66.5C 1867.12,31.5622 1885.12,9.22886 1918.5,-0.5 Z M 1925.5,16.5 C 1959.71,15.7069 1978.04,32.3735 1980.5,66.5C 1980.63,80.291 1976.13,92.291 1967,102.5C 1961.04,92.7492 1955.21,82.9159 1949.5,73C 1965.41,70.7096 1971.58,61.5429 1968,45.5C 1966.77,39.2071 1963.27,34.7071 1957.5,32C 1953.89,31.0551 1950.22,30.3884 1946.5,30C 1932.17,29.5001 1917.84,29.3334 1903.5,29.5C 1903.5,54.1667 1903.5,78.8333 1903.5,103.5C 1909.43,103.808 1915.26,103.475 1921,102.5C 1921.5,92.8391 1921.67,83.1724 1921.5,73.5C 1925.11,73.2108 1928.61,73.5442 1932,74.5C 1937.04,84.0799 1942.21,93.5799 1947.5,103C 1953.17,103.333 1958.83,103.667 1964.5,104C 1944.04,119.877 1923.04,120.544 1901.5,106C 1884.65,88.752 1880.15,68.5853 1888,45.5C 1895.35,28.9367 1907.85,19.27 1925.5,16.5 Z M 1921.5,42.5 C 1929.51,42.3336 1937.51,42.5003 1945.5,43C 1952.29,45.1645 1954.29,49.6645 1951.5,56.5C 1949.87,58.2974 1947.87,59.4641 1945.5,60C 1937.51,60.4997 1929.51,60.6664 1921.5,60.5C 1921.5,54.5 1921.5,48.5 1921.5,42.5 Z"/></g>
<g><path style="opacity:0.995" fill="#000000" d="M -0.5,176.5 C 133.834,176.333 268.167,176.5 402.5,177C 573.687,181.129 735.02,222.796 886.5,302C 896.082,307.374 905.582,312.874 915,318.5C 1029.34,255.721 1151.17,214.888 1280.5,196C 1325.27,189.446 1370.27,185.446 1415.5,184C 1552.17,183.5 1688.83,183.333 1825.5,183.5C 1825.5,336.167 1825.5,488.833 1825.5,641.5C 1715.83,641.667 1606.17,641.5 1496.5,641C 1495.5,589.572 1495.17,538.072 1495.5,486.5C 1457.17,486.333 1418.83,486.5 1380.5,487C 1306.26,489.537 1234.59,504.203 1165.5,531C 1251.6,636.862 1302.1,758.029 1317,894.5C 1328.45,1046.73 1291.78,1186.06 1207,1312.5C 1195.22,1329.28 1183.05,1345.78 1170.5,1362C 1236.76,1387.71 1305.43,1402.05 1376.5,1405C 1414.5,1405.5 1452.5,1405.67 1490.5,1405.5C 1492.57,1338.18 1494.23,1270.85 1495.5,1203.5C 1605.5,1203.5 1715.5,1203.5 1825.5,1203.5C 1825.5,1375.83 1825.5,1548.17 1825.5,1720.5C 1683.83,1720.5 1542.17,1720.5 1400.5,1720.5C 1225.6,1712.2 1061.94,1665.2 909.5,1579.5C 757.68,1661.54 595.347,1706.04 422.5,1713C 281.5,1713.5 140.5,1713.67 -0.5,1713.5C -0.5,1542.83 -0.5,1372.17 -0.5,1201.5C 109.167,1201.5 218.833,1201.5 328.5,1201.5C 328.5,1271.5 328.5,1341.5 328.5,1411.5C 363.502,1411.67 398.502,1411.5 433.5,1411C 511.362,1409.16 586.696,1394.49 659.5,1367C 585.436,1276.01 537.269,1172.51 515,1056.5C 487.19,880.848 523.857,720.181 625,574.5C 634.257,561.654 643.757,548.988 653.5,536.5C 650.652,533.907 647.319,532.074 643.5,531C 577.533,507.45 509.533,494.45 439.5,492C 404.168,491.5 368.835,491.333 333.5,491.5C 332.533,668.509 330.866,845.509 328.5,1022.5C 218.833,1022.5 109.167,1022.5 -0.5,1022.5C -0.5,740.5 -0.5,458.5 -0.5,176.5 Z M 908.5,727.5 C 981.457,831.484 1000.62,944.818 966,1067.5C 954.14,1104.3 937.473,1138.64 916,1170.5C 837.973,1057.64 821.64,936.311 867,806.5C 878.074,778.626 891.907,752.293 908.5,727.5 Z"/></g>
<g><path style="opacity:0.973" fill="#000000" d="M 1659.5,709.5 C 1660.5,709.414 1661.33,709.748 1662,710.5C 1675.69,753.062 1689.85,795.395 1704.5,837.5C 1746.5,821.833 1788.5,806.167 1830.5,790.5C 1830.83,790.833 1831.17,791.167 1831.5,791.5C 1806.96,829.419 1782.29,867.252 1757.5,905C 1796.37,928.263 1835.04,951.763 1873.5,975.5C 1828.59,980.548 1783.59,984.882 1738.5,988.5C 1744.08,1032.17 1749.75,1075.84 1755.5,1119.5C 1755.17,1120.83 1754.83,1122.17 1754.5,1123.5C 1723.18,1091.35 1692.01,1059.01 1661,1026.5C 1629.48,1058.92 1597.98,1091.25 1566.5,1123.5C 1571.21,1078.82 1576.88,1034.16 1583.5,989.5C 1538.46,984.997 1493.46,980.33 1448.5,975.5C 1486.96,951.763 1525.63,928.263 1564.5,905C 1540.46,868.414 1516.29,831.914 1492,795.5C 1490.81,793.956 1490.48,792.289 1491,790.5C 1533.33,806.664 1575.83,822.331 1618.5,837.5C 1632.16,794.84 1645.83,752.173 1659.5,709.5 Z"/></g>
</svg>
