<?xml version="1.0" encoding="UTF-8"?>
<!DOCTYPE svg PUBLIC "-//W3C//DTD SVG 1.1//EN" "http://www.w3.org/Graphics/SVG/1.1/DTD/svg11.dtd">
<svg xmlns="http://www.w3.org/2000/svg" version="1.1" width="1493px" height="2000px" style="shape-rendering:geometricPrecision; text-rendering:geometricPrecision; image-rendering:optimizeQuality; fill-rule:evenodd; clip-rule:evenodd" xmlns:xlink="http://www.w3.org/1999/xlink">
<g><path style="opacity:0.887" fill="#1b1a16" d="M 1397.5,-0.5 C 1411.5,-0.5 1425.5,-0.5 1439.5,-0.5C 1439.5,2.83333 1439.5,6.16667 1439.5,9.5C 1434.5,9.5 1429.5,9.5 1424.5,9.5C 1424.5,22.8333 1424.5,36.1667 1424.5,49.5C 1420.5,49.5 1416.5,49.5 1412.5,49.5C 1412.5,36.1667 1412.5,22.8333 1412.5,9.5C 1407.5,9.5 1402.5,9.5 1397.5,9.5C 1397.5,6.16667 1397.5,2.83333 1397.5,-0.5 Z"/></g>
<g><path style="opacity:0.876" fill="#1b1a16" d="M 1443.5,-0.5 C 1449.17,-0.5 1454.83,-0.5 1460.5,-0.5C 1462.69,10.6123 1465.36,21.6123 1468.5,32.5C 1471.64,21.6172 1474.3,10.6172 1476.5,-0.5C 1481.83,-0.5 1487.17,-0.5 1492.5,-0.5C 1492.5,16.1667 1492.5,32.8333 1492.5,49.5C 1488.83,49.5 1485.17,49.5 1481.5,49.5C 1481.67,39.4944 1481.5,29.4944 1481,19.5C 1478.83,29.514 1476.66,39.514 1474.5,49.5C 1470.45,49.8242 1466.45,49.4909 1462.5,48.5C 1460.34,39.1796 1458.17,29.8463 1456,20.5C 1455.53,30.173 1455.03,39.8397 1454.5,49.5C 1450.83,49.5 1447.17,49.5 1443.5,49.5C 1443.5,32.8333 1443.5,16.1667 1443.5,-0.5 Z"/></g>
<g><path style="opacity:0.993" fill="#1c1b17" d="M -0.5,48.5 C 466.167,48.5 932.833,48.5 1399.5,48.5C 1399.5,213.5 1399.5,378.5 1399.5,543.5C 932.833,543.5 466.167,543.5 -0.5,543.5C -0.5,378.5 -0.5,213.5 -0.5,48.5 Z"/></g>
<g><path style="opacity:1" fill="#fcfcfc" d="M 374.5,199.5 C 374.5,218.167 374.5,236.833 374.5,255.5C 362.167,255.5 349.833,255.5 337.5,255.5C 337.5,248.5 337.5,241.5 337.5,234.5C 324.677,233.505 311.677,233.171 298.5,233.5C 298.171,248.676 298.504,263.676 299.5,278.5C 309.167,278.5 318.833,278.5 328.5,278.5C 328.5,289.5 328.5,300.5 328.5,311.5C 318.652,311.173 308.986,311.506 299.5,312.5C 299.5,327.833 299.5,343.167 299.5,358.5C 303.634,359.485 307.968,359.818 312.5,359.5C 312.5,370.167 312.5,380.833 312.5,391.5C 291.167,391.5 269.833,391.5 248.5,391.5C 248.5,380.833 248.5,370.167 248.5,359.5C 253.032,359.818 257.366,359.485 261.5,358.5C 261.5,317.167 261.5,275.833 261.5,234.5C 257.366,233.515 253.032,233.182 248.5,233.5C 248.5,222.167 248.5,210.833 248.5,199.5C 290.5,199.5 332.5,199.5 374.5,199.5 Z"/></g>
<g><path style="opacity:1" fill="#fcfcfc" d="M 855.5,199.5 C 855.5,210.5 855.5,221.5 855.5,232.5C 850.968,232.182 846.634,232.515 842.5,233.5C 842.5,248.167 842.5,262.833 842.5,277.5C 854.167,277.5 865.833,277.5 877.5,277.5C 877.829,262.657 877.496,247.99 876.5,233.5C 872.366,232.515 868.032,232.182 863.5,232.5C 863.5,221.5 863.5,210.5 863.5,199.5C 884.833,199.5 906.167,199.5 927.5,199.5C 927.5,210.5 927.5,221.5 927.5,232.5C 922.968,232.182 918.634,232.515 914.5,233.5C 914.5,275.5 914.5,317.5 914.5,359.5C 918.833,359.5 923.167,359.5 927.5,359.5C 927.5,370.5 927.5,381.5 927.5,392.5C 906.167,392.5 884.833,392.5 863.5,392.5C 863.5,381.5 863.5,370.5 863.5,359.5C 868.032,359.818 872.366,359.485 876.5,358.5C 876.5,343.167 876.5,327.833 876.5,312.5C 865.167,312.5 853.833,312.5 842.5,312.5C 842.5,327.833 842.5,343.167 842.5,358.5C 846.634,359.485 850.968,359.818 855.5,359.5C 855.5,370.167 855.5,380.833 855.5,391.5C 834.167,391.5 812.833,391.5 791.5,391.5C 791.5,380.5 791.5,369.5 791.5,358.5C 795.833,358.5 800.167,358.5 804.5,358.5C 804.5,316.833 804.5,275.167 804.5,233.5C 800.167,233.5 795.833,233.5 791.5,233.5C 791.5,222.167 791.5,210.833 791.5,199.5C 812.833,199.5 834.167,199.5 855.5,199.5 Z"/></g>
<g><path style="opacity:1" fill="#fcfcfc" d="M 1277.5,199.5 C 1277.5,217.833 1277.5,236.167 1277.5,254.5C 1265.5,254.5 1253.5,254.5 1241.5,254.5C 1241.5,247.5 1241.5,240.5 1241.5,233.5C 1228.83,233.5 1216.17,233.5 1203.5,233.5C 1203.5,248.5 1203.5,263.5 1203.5,278.5C 1212.83,278.5 1222.17,278.5 1231.5,278.5C 1231.5,289.5 1231.5,300.5 1231.5,311.5C 1221.99,311.173 1212.65,311.506 1203.5,312.5C 1203.5,327.833 1203.5,343.167 1203.5,358.5C 1215.99,359.495 1228.66,359.829 1241.5,359.5C 1241.5,350.833 1241.5,342.167 1241.5,333.5C 1253.5,333.5 1265.5,333.5 1277.5,333.5C 1277.5,353.167 1277.5,372.833 1277.5,392.5C 1235.83,392.5 1194.17,392.5 1152.5,392.5C 1152.5,381.5 1152.5,370.5 1152.5,359.5C 1157.03,359.818 1161.37,359.485 1165.5,358.5C 1165.5,316.833 1165.5,275.167 1165.5,233.5C 1160.83,233.5 1156.17,233.5 1151.5,233.5C 1151.5,222.167 1151.5,210.833 1151.5,199.5C 1193.5,199.5 1235.5,199.5 1277.5,199.5 Z"/></g>
<g><path style="opacity:1" fill="#fcfcfc" d="M 137.5,199.5 C 164.835,199.333 192.169,199.5 219.5,200C 225,205.5 230.5,211 236,216.5C 236.833,269.503 236.667,322.503 235.5,375.5C 230.376,381.125 225.042,386.625 219.5,392C 191.5,392.667 163.5,392.667 135.5,392C 130.667,387.167 125.833,382.333 121,377.5C 120.333,323.833 120.333,270.167 121,216.5C 126.703,210.965 132.203,205.298 137.5,199.5 Z"/></g>
<g><path style="opacity:1" fill="#8a8a87" d="M 374.5,199.5 C 332.5,199.5 290.5,199.5 248.5,199.5C 248.5,210.833 248.5,222.167 248.5,233.5C 253.032,233.182 257.366,233.515 261.5,234.5C 256.833,234.5 252.167,234.5 247.5,234.5C 247.5,222.5 247.5,210.5 247.5,198.5C 290.003,198.168 332.337,198.501 374.5,199.5 Z"/></g>
<g><path style="opacity:1" fill="#fdfdfd" d="M 382.5,199.5 C 424.5,199.5 466.5,199.5 508.5,199.5C 508.5,217.833 508.5,236.167 508.5,254.5C 496.5,254.5 484.5,254.5 472.5,254.5C 472.5,247.5 472.5,240.5 472.5,233.5C 459.5,233.5 446.5,233.5 433.5,233.5C 433.5,248.5 433.5,263.5 433.5,278.5C 443.5,278.5 453.5,278.5 463.5,278.5C 463.5,289.5 463.5,300.5 463.5,311.5C 453.5,311.5 443.5,311.5 433.5,311.5C 433.5,327.167 433.5,342.833 433.5,358.5C 437.97,359.486 442.637,359.819 447.5,359.5C 447.5,370.167 447.5,380.833 447.5,391.5C 426.167,391.5 404.833,391.5 383.5,391.5C 383.5,380.833 383.5,370.167 383.5,359.5C 388.032,359.818 392.366,359.485 396.5,358.5C 396.5,316.833 396.5,275.167 396.5,233.5C 391.833,233.5 387.167,233.5 382.5,233.5C 382.5,222.167 382.5,210.833 382.5,199.5 Z"/></g>
<g><path style="opacity:1" fill="#fbfbfb" d="M 656.5,233.5 C 653.167,233.5 649.833,233.5 646.5,233.5C 646.263,234.791 646.596,235.791 647.5,236.5C 650.155,265.176 652.988,293.842 656,322.5C 662.016,300.099 667.849,277.766 673.5,255.5C 674.738,253.786 675.405,251.786 675.5,249.5C 683.833,249.5 692.167,249.5 700.5,249.5C 705.733,267.005 710.733,284.672 715.5,302.5C 715.41,305.152 716.076,307.485 717.5,309.5C 717.41,312.152 718.076,314.485 719.5,316.5C 720.11,317.391 720.443,318.391 720.5,319.5C 720.393,321.379 720.893,321.712 722,320.5C 723.122,315.898 723.622,311.232 723.5,306.5C 726.057,282.156 728.724,257.822 731.5,233.5C 727.5,233.5 723.5,233.5 719.5,233.5C 719.5,222.167 719.5,210.833 719.5,199.5C 738.5,199.5 757.5,199.5 776.5,199.5C 776.5,210.833 776.5,222.167 776.5,233.5C 772.629,233.185 768.962,233.518 765.5,234.5C 764.419,237.627 763.753,240.96 763.5,244.5C 762.079,257.534 760.412,270.534 758.5,283.5C 757.049,288.959 756.049,294.626 755.5,300.5C 755.5,301.833 755.5,303.167 755.5,304.5C 754.049,309.959 753.049,315.626 752.5,321.5C 749.495,344.85 746.495,368.183 743.5,391.5C 731.5,392.833 719.5,392.833 707.5,391.5C 706.644,385.075 705.311,378.741 703.5,372.5C 703.59,369.848 702.924,367.515 701.5,365.5C 700.453,359.326 699.12,353.326 697.5,347.5C 697.59,344.848 696.924,342.515 695.5,340.5C 694.453,334.326 693.12,328.326 691.5,322.5C 691.59,319.848 690.924,317.515 689.5,315.5C 688.167,303.5 686.833,303.5 685.5,315.5C 684.076,317.515 683.41,319.848 683.5,322.5C 681.858,328.406 680.524,334.406 679.5,340.5C 678.076,342.515 677.41,344.848 677.5,347.5C 675.855,353.415 674.522,359.415 673.5,365.5C 672.076,367.515 671.41,369.848 671.5,372.5C 669.405,378.641 668.071,384.975 667.5,391.5C 655.914,392.478 644.247,392.811 632.5,392.5C 624.365,340.221 616.698,287.888 609.5,235.5C 605.971,233.577 601.971,232.911 597.5,233.5C 597.5,222.167 597.5,210.833 597.5,199.5C 617.167,199.5 636.833,199.5 656.5,199.5C 656.5,210.833 656.5,222.167 656.5,233.5 Z"/></g>
<g><path style="opacity:1" fill="#cbcbca" d="M 855.5,199.5 C 856.495,210.654 856.828,221.988 856.5,233.5C 852.167,233.5 847.833,233.5 843.5,233.5C 843.167,233.5 842.833,233.5 842.5,233.5C 846.634,232.515 850.968,232.182 855.5,232.5C 855.5,221.5 855.5,210.5 855.5,199.5 Z"/></g>
<g><path style="opacity:1" fill="#989895" d="M 928.5,199.5 C 928.167,199.5 927.833,199.5 927.5,199.5C 906.167,199.5 884.833,199.5 863.5,199.5C 863.5,210.5 863.5,221.5 863.5,232.5C 868.032,232.182 872.366,232.515 876.5,233.5C 871.833,233.5 867.167,233.5 862.5,233.5C 862.5,221.833 862.5,210.167 862.5,198.5C 884.673,198.169 906.673,198.503 928.5,199.5 Z"/></g>
<g><path style="opacity:1" fill="#b8b7b6" d="M 927.5,199.5 C 927.833,199.5 928.167,199.5 928.5,199.5C 928.5,210.833 928.5,222.167 928.5,233.5C 924.167,233.5 919.833,233.5 915.5,233.5C 915.167,233.5 914.833,233.5 914.5,233.5C 918.634,232.515 922.968,232.182 927.5,232.5C 927.5,221.5 927.5,210.5 927.5,199.5 Z"/></g>
<g><path style="opacity:1" fill="#c5c5c4" d="M 939.5,199.5 C 939.833,199.5 940.167,199.5 940.5,199.5C 940.5,210.5 940.5,221.5 940.5,232.5C 945.032,232.182 949.366,232.515 953.5,233.5C 948.833,233.5 944.167,233.5 939.5,233.5C 939.5,222.167 939.5,210.833 939.5,199.5 Z"/></g>
<g><path style="opacity:1" fill="#fcfcfc" d="M 940.5,199.5 C 961.833,199.5 983.167,199.5 1004.5,199.5C 1004.5,210.833 1004.5,222.167 1004.5,233.5C 1000.17,233.5 995.833,233.5 991.5,233.5C 991.5,275.167 991.5,316.833 991.5,358.5C 995.634,359.485 999.968,359.818 1004.5,359.5C 1004.5,370.167 1004.5,380.833 1004.5,391.5C 983.167,391.5 961.833,391.5 940.5,391.5C 940.5,380.833 940.5,370.167 940.5,359.5C 945.032,359.818 949.366,359.485 953.5,358.5C 953.5,316.833 953.5,275.167 953.5,233.5C 949.366,232.515 945.032,232.182 940.5,232.5C 940.5,221.5 940.5,210.5 940.5,199.5 Z"/></g>
<g><path style="opacity:1" fill="#898885" d="M 939.5,199.5 C 961.327,198.503 983.327,198.169 1005.5,198.5C 1005.5,210.167 1005.5,221.833 1005.5,233.5C 1005.17,233.5 1004.83,233.5 1004.5,233.5C 1004.5,222.167 1004.5,210.833 1004.5,199.5C 983.167,199.5 961.833,199.5 940.5,199.5C 940.167,199.5 939.833,199.5 939.5,199.5 Z"/></g>
<g><path style="opacity:1" fill="#fdfdfd" d="M 1016.5,200.5 C 1057.83,200.5 1099.17,200.5 1140.5,200.5C 1140.5,219.167 1140.5,237.833 1140.5,256.5C 1130.5,256.5 1120.5,256.5 1110.5,256.5C 1110.5,248.833 1110.5,241.167 1110.5,233.5C 1106.5,233.5 1102.5,233.5 1098.5,233.5C 1097.5,275.33 1097.17,317.33 1097.5,359.5C 1101.83,359.5 1106.17,359.5 1110.5,359.5C 1110.5,370.167 1110.5,380.833 1110.5,391.5C 1089.5,391.5 1068.5,391.5 1047.5,391.5C 1047.5,380.833 1047.5,370.167 1047.5,359.5C 1051.7,359.817 1055.7,359.483 1059.5,358.5C 1059.5,316.833 1059.5,275.167 1059.5,233.5C 1055.5,233.5 1051.5,233.5 1047.5,233.5C 1047.5,241.167 1047.5,248.833 1047.5,256.5C 1037.17,256.5 1026.83,256.5 1016.5,256.5C 1016.5,237.833 1016.5,219.167 1016.5,200.5 Z"/></g>
<g><path style="opacity:1" fill="#b9b8b7" d="M 1016.5,200.5 C 1058,199.501 1099.66,199.168 1141.5,199.5C 1141.83,218.674 1141.5,237.674 1140.5,256.5C 1140.5,237.833 1140.5,219.167 1140.5,200.5C 1099.17,200.5 1057.83,200.5 1016.5,200.5 Z"/></g>
<g><path style="opacity:1" fill="#898986" d="M 1277.5,199.5 C 1235.5,199.5 1193.5,199.5 1151.5,199.5C 1151.5,210.833 1151.5,222.167 1151.5,233.5C 1151.17,233.5 1150.83,233.5 1150.5,233.5C 1150.5,221.833 1150.5,210.167 1150.5,198.5C 1193,198.168 1235.34,198.501 1277.5,199.5 Z"/></g>
<g><path style="opacity:1" fill="#7f7f7c" d="M 597.5,233.5 C 601.971,232.911 605.971,233.577 609.5,235.5C 605.395,234.891 601.395,234.225 597.5,233.5 Z"/></g>
<g><path style="opacity:1" fill="#7e7e7b" d="M 656.5,233.5 C 653.203,233.89 650.203,234.89 647.5,236.5C 646.596,235.791 646.263,234.791 646.5,233.5C 649.833,233.5 653.167,233.5 656.5,233.5 Z"/></g>
<g><path style="opacity:1" fill="#8b8b89" d="M 198.5,234.5 C 185.167,234.5 171.833,234.5 158.5,234.5C 158.5,275.833 158.5,317.167 158.5,358.5C 157.501,317.003 157.168,275.337 157.5,233.5C 171.344,233.171 185.01,233.504 198.5,234.5 Z"/></g>
<g><path style="opacity:1" fill="#1c1b17" d="M 198.5,234.5 C 198.5,275.833 198.5,317.167 198.5,358.5C 185.167,358.5 171.833,358.5 158.5,358.5C 158.5,317.167 158.5,275.833 158.5,234.5C 171.833,234.5 185.167,234.5 198.5,234.5 Z"/></g>
<g><path style="opacity:1" fill="#b1b0af" d="M 337.5,234.5 C 324.833,234.5 312.167,234.5 299.5,234.5C 299.5,248.833 299.5,263.167 299.5,277.5C 299.5,277.833 299.5,278.167 299.5,278.5C 298.504,263.676 298.171,248.676 298.5,233.5C 311.677,233.171 324.677,233.505 337.5,234.5 Z"/></g>
<g><path style="opacity:1" fill="#807f7d" d="M 382.5,233.5 C 387.167,233.5 391.833,233.5 396.5,233.5C 396.5,275.167 396.5,316.833 396.5,358.5C 396.167,358.5 395.833,358.5 395.5,358.5C 395.5,317.167 395.5,275.833 395.5,234.5C 390.968,234.818 386.634,234.485 382.5,233.5 Z"/></g>
<g><path style="opacity:1" fill="#767573" d="M 472.5,254.5 C 472.5,254.833 472.5,255.167 472.5,255.5C 471.509,248.687 471.175,241.687 471.5,234.5C 459.167,234.5 446.833,234.5 434.5,234.5C 434.5,248.833 434.5,263.167 434.5,277.5C 444.348,277.173 454.014,277.506 463.5,278.5C 453.5,278.5 443.5,278.5 433.5,278.5C 433.5,263.5 433.5,248.5 433.5,233.5C 446.5,233.5 459.5,233.5 472.5,233.5C 472.5,240.5 472.5,247.5 472.5,254.5 Z"/></g>
<g><path style="opacity:1" fill="#2b2a26" d="M 1059.5,358.5 C 1055.5,358.5 1051.5,358.5 1047.5,358.5C 1050.96,357.518 1054.63,357.185 1058.5,357.5C 1058.5,316.5 1058.5,275.5 1058.5,234.5C 1055.17,234.5 1051.83,234.5 1048.5,234.5C 1048.82,242.019 1048.49,249.352 1047.5,256.5C 1047.5,248.833 1047.5,241.167 1047.5,233.5C 1051.5,233.5 1055.5,233.5 1059.5,233.5C 1059.5,275.167 1059.5,316.833 1059.5,358.5 Z"/></g>
<g><path style="opacity:1" fill="#3c3b37" d="M 1150.5,233.5 C 1150.83,233.5 1151.17,233.5 1151.5,233.5C 1156.17,233.5 1160.83,233.5 1165.5,233.5C 1165.5,275.167 1165.5,316.833 1165.5,358.5C 1165.17,358.5 1164.83,358.5 1164.5,358.5C 1164.5,317.167 1164.5,275.833 1164.5,234.5C 1159.64,234.819 1154.97,234.486 1150.5,233.5 Z"/></g>
<g><path style="opacity:1" fill="#3f3e3b" d="M 1241.5,254.5 C 1240.51,248.021 1240.18,241.354 1240.5,234.5C 1228.5,234.5 1216.5,234.5 1204.5,234.5C 1204.5,248.833 1204.5,263.167 1204.5,277.5C 1214.01,277.173 1223.35,277.506 1232.5,278.5C 1232.17,278.5 1231.83,278.5 1231.5,278.5C 1222.17,278.5 1212.83,278.5 1203.5,278.5C 1203.5,263.5 1203.5,248.5 1203.5,233.5C 1216.17,233.5 1228.83,233.5 1241.5,233.5C 1241.5,240.5 1241.5,247.5 1241.5,254.5 Z"/></g>
<g><path style="opacity:1" fill="#363532" d="M 939.5,233.5 C 944.167,233.5 948.833,233.5 953.5,233.5C 953.5,275.167 953.5,316.833 953.5,358.5C 953.167,358.5 952.833,358.5 952.5,358.5C 952.5,317.167 952.5,275.833 952.5,234.5C 947.968,234.818 943.634,234.485 939.5,233.5 Z"/></g>
<g><path style="opacity:1" fill="#2b2a27" d="M 1004.5,233.5 C 1004.83,233.5 1005.17,233.5 1005.5,233.5C 1001.37,234.485 997.032,234.818 992.5,234.5C 992.5,275.5 992.5,316.5 992.5,357.5C 997.032,357.182 1001.37,357.515 1005.5,358.5C 1000.83,358.5 996.167,358.5 991.5,358.5C 991.5,316.833 991.5,275.167 991.5,233.5C 995.833,233.5 1000.17,233.5 1004.5,233.5 Z"/></g>
<g><path style="opacity:1" fill="#575653" d="M 765.5,234.5 C 765.664,237.187 765.497,239.854 765,242.5C 764.722,243.416 764.222,244.082 763.5,244.5C 763.753,240.96 764.419,237.627 765.5,234.5 Z"/></g>
<g><path style="opacity:1" fill="#d3d3d2" d="M 700.5,249.5 C 692.167,249.5 683.833,249.5 675.5,249.5C 675.405,251.786 674.738,253.786 673.5,255.5C 673.674,253.139 674.007,250.806 674.5,248.5C 683.349,248.174 692.016,248.507 700.5,249.5 Z"/></g>
<g><path style="opacity:1" fill="#848381" d="M 382.5,199.5 C 424.663,198.501 466.997,198.168 509.5,198.5C 509.5,217.5 509.5,236.5 509.5,255.5C 497.167,255.5 484.833,255.5 472.5,255.5C 472.5,255.167 472.5,254.833 472.5,254.5C 484.5,254.5 496.5,254.5 508.5,254.5C 508.5,236.167 508.5,217.833 508.5,199.5C 466.5,199.5 424.5,199.5 382.5,199.5 Z"/></g>
<g><path style="opacity:1" fill="#7e7e7b" d="M 842.5,233.5 C 842.833,233.5 843.167,233.5 843.5,233.5C 843.5,247.833 843.5,262.167 843.5,276.5C 854.5,276.5 865.5,276.5 876.5,276.5C 876.5,262.167 876.5,247.833 876.5,233.5C 877.496,247.99 877.829,262.657 877.5,277.5C 865.833,277.5 854.167,277.5 842.5,277.5C 842.5,262.833 842.5,248.167 842.5,233.5 Z"/></g>
<g><path style="opacity:1" fill="#8e8d8b" d="M 299.5,278.5 C 299.5,278.167 299.5,277.833 299.5,277.5C 309.5,277.5 319.5,277.5 329.5,277.5C 329.5,289.167 329.5,300.833 329.5,312.5C 319.5,312.5 309.5,312.5 299.5,312.5C 308.986,311.506 318.652,311.173 328.5,311.5C 328.5,300.5 328.5,289.5 328.5,278.5C 318.833,278.5 309.167,278.5 299.5,278.5 Z"/></g>
<g><path style="opacity:1" fill="#bebebd" d="M 1231.5,278.5 C 1231.83,278.5 1232.17,278.5 1232.5,278.5C 1232.5,289.833 1232.5,301.167 1232.5,312.5C 1222.83,312.5 1213.17,312.5 1203.5,312.5C 1212.65,311.506 1221.99,311.173 1231.5,311.5C 1231.5,300.5 1231.5,289.5 1231.5,278.5 Z"/></g>
<g><path style="opacity:1" fill="#575653" d="M 758.5,283.5 C 758.667,289.503 757.667,295.17 755.5,300.5C 756.049,294.626 757.049,288.959 758.5,283.5 Z"/></g>
<g><path style="opacity:1" fill="#b8b8b7" d="M 715.5,302.5 C 716.924,304.515 717.59,306.848 717.5,309.5C 716.076,307.485 715.41,305.152 715.5,302.5 Z"/></g>
<g><path style="opacity:1" fill="#555451" d="M 755.5,304.5 C 755.667,310.503 754.667,316.17 752.5,321.5C 753.049,315.626 754.049,309.959 755.5,304.5 Z"/></g>
<g><path style="opacity:1" fill="#b8b7b6" d="M 717.5,309.5 C 718.924,311.515 719.59,313.848 719.5,316.5C 718.076,314.485 717.41,312.152 717.5,309.5 Z"/></g>
<g><path style="opacity:1" fill="#8b8a88" d="M 463.5,311.5 C 454.014,312.494 444.348,312.827 434.5,312.5C 434.5,327.833 434.5,343.167 434.5,358.5C 434.167,358.5 433.833,358.5 433.5,358.5C 433.5,342.833 433.5,327.167 433.5,311.5C 443.5,311.5 453.5,311.5 463.5,311.5 Z"/></g>
<g><path style="opacity:1" fill="#82817f" d="M 723.5,306.5 C 723.622,311.232 723.122,315.898 722,320.5C 720.893,321.712 720.393,321.379 720.5,319.5C 721.743,315.214 722.743,310.881 723.5,306.5 Z"/></g>
<g><path style="opacity:1" fill="#565552" d="M 685.5,315.5 C 685.59,318.152 684.924,320.485 683.5,322.5C 683.41,319.848 684.076,317.515 685.5,315.5 Z"/></g>
<g><path style="opacity:1" fill="#52514e" d="M 689.5,315.5 C 690.924,317.515 691.59,319.848 691.5,322.5C 690.076,320.485 689.41,318.152 689.5,315.5 Z"/></g>
<g><path style="opacity:1" fill="#595956" d="M 679.5,340.5 C 679.59,343.152 678.924,345.485 677.5,347.5C 677.41,344.848 678.076,342.515 679.5,340.5 Z"/></g>
<g><path style="opacity:1" fill="#565551" d="M 695.5,340.5 C 696.924,342.515 697.59,344.848 697.5,347.5C 696.076,345.485 695.41,343.152 695.5,340.5 Z"/></g>
<g><path style="opacity:1" fill="#a8a8a6" d="M 1241.5,333.5 C 1241.5,342.167 1241.5,350.833 1241.5,359.5C 1228.66,359.829 1215.99,359.495 1203.5,358.5C 1215.83,358.5 1228.17,358.5 1240.5,358.5C 1240.17,349.983 1240.51,341.65 1241.5,333.5 Z"/></g>
<g><path style="opacity:1" fill="#aeaead" d="M 261.5,358.5 C 257.366,359.485 253.032,359.818 248.5,359.5C 248.5,370.167 248.5,380.833 248.5,391.5C 248.5,391.833 248.5,392.167 248.5,392.5C 247.505,381.346 247.172,370.012 247.5,358.5C 252.167,358.5 256.833,358.5 261.5,358.5 Z"/></g>
<g><path style="opacity:1" fill="#9b9b9a" d="M 433.5,358.5 C 433.833,358.5 434.167,358.5 434.5,358.5C 439.167,358.5 443.833,358.5 448.5,358.5C 448.828,370.012 448.495,381.346 447.5,392.5C 447.5,392.167 447.5,391.833 447.5,391.5C 447.5,380.833 447.5,370.167 447.5,359.5C 442.637,359.819 437.97,359.486 433.5,358.5 Z"/></g>
<g><path style="opacity:1" fill="#aeaeac" d="M 876.5,358.5 C 872.366,359.485 868.032,359.818 863.5,359.5C 863.5,370.5 863.5,381.5 863.5,392.5C 862.505,381.346 862.172,370.012 862.5,358.5C 867.167,358.5 871.833,358.5 876.5,358.5 Z"/></g>
<g><path style="opacity:1" fill="#939290" d="M 914.5,233.5 C 914.833,233.5 915.167,233.5 915.5,233.5C 915.5,275.167 915.5,316.833 915.5,358.5C 919.833,358.5 924.167,358.5 928.5,358.5C 928.828,370.012 928.495,381.346 927.5,392.5C 927.5,381.5 927.5,370.5 927.5,359.5C 923.167,359.5 918.833,359.5 914.5,359.5C 914.5,317.5 914.5,275.5 914.5,233.5 Z"/></g>
<g><path style="opacity:1" fill="#999997" d="M 1047.5,358.5 C 1051.5,358.5 1055.5,358.5 1059.5,358.5C 1055.7,359.483 1051.7,359.817 1047.5,359.5C 1047.5,370.167 1047.5,380.833 1047.5,391.5C 1047.5,391.833 1047.5,392.167 1047.5,392.5C 1046.17,381.167 1046.17,369.833 1047.5,358.5 Z"/></g>
<g><path style="opacity:1" fill="#a4a3a1" d="M 991.5,358.5 C 996.167,358.5 1000.83,358.5 1005.5,358.5C 1005.83,370.012 1005.49,381.346 1004.5,392.5C 1004.5,392.167 1004.5,391.833 1004.5,391.5C 1004.5,380.833 1004.5,370.167 1004.5,359.5C 999.968,359.818 995.634,359.485 991.5,358.5 Z"/></g>
<g><path style="opacity:1" fill="#a7a7a5" d="M 1164.5,358.5 C 1164.83,358.5 1165.17,358.5 1165.5,358.5C 1161.37,359.485 1157.03,359.818 1152.5,359.5C 1152.5,370.5 1152.5,381.5 1152.5,392.5C 1151.51,381.346 1151.17,370.012 1151.5,358.5C 1155.83,358.5 1160.17,358.5 1164.5,358.5 Z"/></g>
<g><path style="opacity:1" fill="#5f5e5a" d="M 673.5,365.5 C 673.59,368.152 672.924,370.485 671.5,372.5C 671.41,369.848 672.076,367.515 673.5,365.5 Z"/></g>
<g><path style="opacity:1" fill="#595855" d="M 701.5,365.5 C 702.924,367.515 703.59,369.848 703.5,372.5C 702.076,370.485 701.41,368.152 701.5,365.5 Z"/></g>
<g><path style="opacity:1" fill="#d9d9d8" d="M 299.5,358.5 C 304.167,358.5 308.833,358.5 313.5,358.5C 313.5,369.833 313.5,381.167 313.5,392.5C 291.833,392.5 270.167,392.5 248.5,392.5C 248.5,392.167 248.5,391.833 248.5,391.5C 269.833,391.5 291.167,391.5 312.5,391.5C 312.5,380.833 312.5,370.167 312.5,359.5C 307.968,359.818 303.634,359.485 299.5,358.5 Z"/></g>
<g><path style="opacity:1" fill="#dddddc" d="M 395.5,358.5 C 395.833,358.5 396.167,358.5 396.5,358.5C 392.366,359.485 388.032,359.818 383.5,359.5C 383.5,370.167 383.5,380.833 383.5,391.5C 404.833,391.5 426.167,391.5 447.5,391.5C 447.5,391.833 447.5,392.167 447.5,392.5C 425.833,392.5 404.167,392.5 382.5,392.5C 382.5,381.167 382.5,369.833 382.5,358.5C 386.833,358.5 391.167,358.5 395.5,358.5 Z"/></g>
<g><path style="opacity:1" fill="#c9c9c8" d="M 791.5,358.5 C 791.5,369.5 791.5,380.5 791.5,391.5C 812.833,391.5 834.167,391.5 855.5,391.5C 855.5,380.833 855.5,370.167 855.5,359.5C 850.968,359.818 846.634,359.485 842.5,358.5C 847.167,358.5 851.833,358.5 856.5,358.5C 856.5,369.833 856.5,381.167 856.5,392.5C 834.5,392.5 812.5,392.5 790.5,392.5C 790.172,380.988 790.505,369.654 791.5,358.5 Z"/></g>
<g><path style="opacity:1" fill="#d4d4d3" d="M 952.5,358.5 C 952.833,358.5 953.167,358.5 953.5,358.5C 949.366,359.485 945.032,359.818 940.5,359.5C 940.5,370.167 940.5,380.833 940.5,391.5C 961.833,391.5 983.167,391.5 1004.5,391.5C 1004.5,391.833 1004.5,392.167 1004.5,392.5C 982.833,392.5 961.167,392.5 939.5,392.5C 939.5,381.167 939.5,369.833 939.5,358.5C 943.833,358.5 948.167,358.5 952.5,358.5 Z"/></g>
<g><path style="opacity:1" fill="#bcbcba" d="M 1098.5,233.5 C 1098.5,275.167 1098.5,316.833 1098.5,358.5C 1102.83,358.5 1107.17,358.5 1111.5,358.5C 1111.5,369.833 1111.5,381.167 1111.5,392.5C 1090.17,392.5 1068.83,392.5 1047.5,392.5C 1047.5,392.167 1047.5,391.833 1047.5,391.5C 1068.5,391.5 1089.5,391.5 1110.5,391.5C 1110.5,380.833 1110.5,370.167 1110.5,359.5C 1106.17,359.5 1101.83,359.5 1097.5,359.5C 1097.17,317.33 1097.5,275.33 1098.5,233.5 Z"/></g>
<g><path style="opacity:1" fill="#353431" d="M 667.5,391.5 C 662.04,392.829 656.207,393.496 650,393.5C 643.99,393.499 638.157,393.166 632.5,392.5C 644.247,392.811 655.914,392.478 667.5,391.5 Z"/></g>
<g><path style="opacity:1" fill="#353431" d="M 707.5,391.5 C 719.5,392.833 731.5,392.833 743.5,391.5C 737.872,392.829 731.872,393.496 725.5,393.5C 719.128,393.496 713.128,392.829 707.5,391.5 Z"/></g>
<g><path style="opacity:0.993" fill="#1b1a16" d="M -0.5,599.5 C 163.833,599.5 328.167,599.5 492.5,599.5C 492.5,653.167 492.5,706.833 492.5,760.5C 424.499,760.333 356.499,760.5 288.5,761C 425.333,897.833 562.167,1034.67 699,1171.5C 835.833,1034.67 972.667,897.833 1109.5,761C 1041.5,760.5 973.501,760.333 905.5,760.5C 905.5,706.833 905.5,653.167 905.5,599.5C 1070.17,599.5 1234.83,599.5 1399.5,599.5C 1399.5,764.167 1399.5,928.833 1399.5,1093.5C 1345.83,1093.5 1292.17,1093.5 1238.5,1093.5C 1238.67,1025.17 1238.5,956.833 1238,888.5C 1100.99,1025.35 964.153,1162.35 827.5,1299.5C 964.153,1436.65 1100.99,1573.65 1238,1710.5C 1238.33,1642.5 1238.67,1574.5 1239,1506.5C 1292.33,1505.17 1345.67,1505.17 1399,1506.5C 1399.5,1670.83 1399.67,1835.17 1399.5,1999.5C 1234.83,1999.5 1070.17,1999.5 905.5,1999.5C 905.5,1946.17 905.5,1892.83 905.5,1839.5C 973.503,1839.83 1041.5,1839.5 1109.5,1838.5C 972.801,1702.46 835.968,1565.46 699,1427.5C 561.514,1565.6 424.347,1702.76 287.5,1839C 355.833,1839.5 424.166,1839.67 492.5,1839.5C 492.5,1892.83 492.5,1946.17 492.5,1999.5C 328.167,1999.5 163.833,1999.5 -0.5,1999.5C -0.5,1834.83 -0.5,1670.17 -0.5,1505.5C 52.7383,1505.17 105.905,1505.5 159,1506.5C 159.333,1574.5 159.667,1642.5 160,1710.5C 297.014,1573.65 433.847,1436.65 570.5,1299.5C 433.847,1162.35 297.014,1025.35 160,888.5C 159.5,956.833 159.333,1025.17 159.5,1093.5C 106.167,1093.5 52.8333,1093.5 -0.5,1093.5C -0.5,928.833 -0.5,764.167 -0.5,599.5 Z"/></g>
</svg>
