<?xml version="1.0" encoding="UTF-8"?>
<!DOCTYPE svg PUBLIC "-//W3C//DTD SVG 1.1//EN" "http://www.w3.org/Graphics/SVG/1.1/DTD/svg11.dtd">
<svg xmlns="http://www.w3.org/2000/svg" version="1.1" width="2000px" height="762px" style="shape-rendering:geometricPrecision; text-rendering:geometricPrecision; image-rendering:optimizeQuality; fill-rule:evenodd; clip-rule:evenodd" xmlns:xlink="http://www.w3.org/1999/xlink">
<g><path style="opacity:0.989" fill="#000000" d="M 515.5,-0.5 C 967.5,-0.5 1419.5,-0.5 1871.5,-0.5C 1871.5,43.1667 1871.5,86.8333 1871.5,130.5C 1454.83,130.5 1038.17,130.5 621.5,130.5C 555.833,338.5 490.167,546.5 424.5,754.5C 363.83,754.833 303.163,754.5 242.5,753.5C 161.665,504.996 80.6647,256.663 -0.5,8.5C -0.5,6.83333 -0.5,5.16667 -0.5,3.5C 49.3167,3.77634 98.9833,4.10967 148.5,4.5C 211.157,195.638 274.324,386.638 338,577.5C 397.476,384.906 456.643,192.239 515.5,-0.5 Z"/></g>
<g><path style="opacity:0.847" fill="#000000" d="M 1999.5,217.5 C 1999.5,225.167 1999.5,232.833 1999.5,240.5C 1986.95,276.278 1962.28,289.112 1925.5,279C 1896.2,263.216 1886.7,239.382 1897,207.5C 1912.41,179.388 1935.57,169.888 1966.5,179C 1983.87,186.527 1994.87,199.36 1999.5,217.5 Z M 1943.5,188.5 C 1973.16,190.826 1987.32,206.826 1986,236.5C 1984.34,243.49 1981.34,249.824 1977,255.5C 1974.24,254.019 1971.57,252.353 1969,250.5C 1963.64,243.976 1958.48,237.31 1953.5,230.5C 1967.19,225.929 1970.52,217.429 1963.5,205C 1959.35,201.951 1954.69,200.284 1949.5,200C 1939.84,199.5 1930.17,199.334 1920.5,199.5C 1920.5,200.5 1920.5,201.5 1920.5,202.5C 1924.71,202.27 1927.38,204.103 1928.5,208C 1927.19,221.451 1927.19,234.951 1928.5,248.5C 1927.7,252.907 1925.03,254.907 1920.5,254.5C 1920.5,255.5 1920.5,256.5 1920.5,257.5C 1928.83,257.5 1937.17,257.5 1945.5,257.5C 1945.72,256.325 1945.39,255.325 1944.5,254.5C 1942.27,254.136 1940.43,253.136 1939,251.5C 1938.5,244.842 1938.33,238.175 1938.5,231.5C 1940.14,231.286 1941.64,231.62 1943,232.5C 1949.17,240.667 1955.33,248.833 1961.5,257C 1965.83,257.333 1970.17,257.667 1974.5,258C 1957.61,272.101 1939.95,273.101 1921.5,261C 1904.83,245.036 1902,226.869 1913,206.5C 1920.6,196.044 1930.77,190.044 1943.5,188.5 Z M 1938.5,204.5 C 1944.88,203.476 1950.38,205.143 1955,209.5C 1958.12,218.084 1955.29,223.584 1946.5,226C 1943.85,226.497 1941.19,226.664 1938.5,226.5C 1938.5,219.167 1938.5,211.833 1938.5,204.5 Z"/></g>
<g><path style="opacity:0.985" fill="#000000" d="M 1694.5,761.5 C 1680.17,761.5 1665.83,761.5 1651.5,761.5C 1552.27,749.601 1496.6,693.934 1484.5,594.5C 1528.17,594.333 1571.83,594.5 1615.5,595C 1618.96,609.427 1625.46,622.261 1635,633.5C 1643.63,640.38 1653.46,644.547 1664.5,646C 1680.88,647.756 1696.88,646.089 1712.5,641C 1731.68,631.471 1736.85,616.971 1728,597.5C 1721.71,589.882 1714.21,583.715 1705.5,579C 1683.24,568.691 1660.24,560.358 1636.5,554C 1603.71,543.442 1574.04,527.442 1547.5,506C 1503.55,465.807 1487.38,416.307 1499,357.5C 1511.11,289.052 1551.28,247.885 1619.5,234C 1666.21,223.523 1711.87,226.856 1756.5,244C 1800.98,265.163 1829.48,299.663 1842,347.5C 1845.93,361.629 1848.76,375.962 1850.5,390.5C 1807.5,390.5 1764.5,390.5 1721.5,390.5C 1720.96,381.368 1718.12,373.034 1713,365.5C 1695.27,347.81 1674.1,341.977 1649.5,348C 1628.08,353.046 1620.92,365.88 1628,386.5C 1634.51,395.336 1642.68,402.169 1652.5,407C 1676.66,418.499 1701.66,427.832 1727.5,435C 1758.73,445.775 1787.07,461.441 1812.5,482C 1848.71,513.95 1864.88,554.117 1861,602.5C 1859.33,645.972 1843.83,683.472 1814.5,715C 1791.43,735.202 1764.76,748.535 1734.5,755C 1721.12,757.79 1707.79,759.956 1694.5,761.5 Z"/></g>
<g><path style="opacity:0.986" fill="#000000" d="M 700.5,241.5 C 746.5,241.5 792.5,241.5 838.5,241.5C 887.502,412.173 936.502,582.839 985.5,753.5C 940.499,753.667 895.499,753.5 850.5,753C 845.167,731.333 839.833,709.667 834.5,688C 790.168,687.5 745.835,687.333 701.5,687.5C 696.974,709.269 691.974,730.936 686.5,752.5C 642.172,753.5 597.838,753.833 553.5,753.5C 602.188,582.751 651.188,412.084 700.5,241.5 Z M 767.5,400.5 C 783.223,459.058 797.889,518.058 811.5,577.5C 783.5,577.5 755.5,577.5 727.5,577.5C 740.833,518.5 754.167,459.5 767.5,400.5 Z"/></g>
<g><path style="opacity:0.988" fill="#000000" d="M 1031.5,241.5 C 1073.74,241.17 1115.91,241.503 1158,242.5C 1206.59,333.342 1254.92,424.342 1303,515.5C 1299.83,424.214 1298.66,332.88 1299.5,241.5C 1343.17,241.5 1386.83,241.5 1430.5,241.5C 1430.5,412.167 1430.5,582.833 1430.5,753.5C 1387.5,753.667 1344.5,753.5 1301.5,753C 1252.95,662.738 1204.78,572.238 1157,481.5C 1158,516.183 1159.67,550.849 1162,585.5C 1162.5,641.499 1162.67,697.499 1162.5,753.5C 1118.83,753.5 1075.17,753.5 1031.5,753.5C 1031.5,582.833 1031.5,412.167 1031.5,241.5 Z"/></g>
</svg>
