<?xml version="1.0" standalone="no"?>
<!DOCTYPE svg PUBLIC "-//W3C//DTD SVG 20010904//EN"
 "http://www.w3.org/TR/2001/REC-SVG-20010904/DTD/svg10.dtd">
<svg version="1.0" xmlns="http://www.w3.org/2000/svg"
 width="300.000000pt" height="300.000000pt" viewBox="0 0 300.000000 300.000000"
 preserveAspectRatio="xMidYMid meet">
<metadata>
Created by potrace 1.10, written by Peter Selinger 2001-2011
</metadata>
<g transform="translate(0.000000,300.000000) scale(0.050000,-0.050000)"
fill="#000000" stroke="none">
<path d="M3354 4366 c-305 -184 -554 -342 -554 -352 0 -10 367 -630 815 -1376
l815 -1358 786 0 786 0 -46 76 c-25 42 -487 812 -1026 1710 -539 898 -989
1633 -1001 1633 -11 1 -270 -149 -575 -333z"/>
<path d="M1976 3153 c-294 -178 -544 -333 -556 -345 -15 -15 108 -236 431
-775 l453 -753 778 0 c428 0 778 6 778 13 0 34 -1307 2187 -1327 2185 -13 -1
-263 -147 -557 -325z"/>
<path d="M565 1917 l-566 -341 44 -73 c25 -40 66 -107 91 -148 l47 -75 779 0
c429 0 780 4 780 9 0 23 -573 959 -590 963 -11 4 -274 -147 -585 -335z"/>
</g>
</svg>
