<?xml version="1.0" standalone="no"?>
<!DOCTYPE svg PUBLIC "-//W3C//DTD SVG 20010904//EN"
 "http://www.w3.org/TR/2001/REC-SVG-20010904/DTD/svg10.dtd">
<svg version="1.0" xmlns="http://www.w3.org/2000/svg"
 width="274.000000pt" height="184.000000pt" viewBox="0 0 274.000000 184.000000"
 preserveAspectRatio="xMidYMid meet">
<metadata>
Created by potrace 1.10, written by Peter Selinger 2001-2011
</metadata>
<g transform="translate(0.000000,184.000000) scale(0.100000,-0.100000)"
fill="#000000" stroke="none">
<path d="M1076 1828 c8 -13 126 -153 408 -483 75 -88 136 -162 136 -165 0 -3
-124 -150 -275 -327 -151 -178 -275 -325 -275 -328 0 -3 105 -5 234 -5 l234 0
296 326 c163 179 296 329 296 333 0 3 -84 98 -187 211 -102 113 -235 260 -296
328 l-110 122 -234 0 c-185 0 -233 -3 -227 -12z"/>
<path d="M937 1437 c-43 -59 -81 -107 -84 -107 -5 0 -228 69 -252 78 -7 3 19
-43 58 -102 40 -59 74 -113 77 -120 3 -7 -26 -62 -65 -122 -38 -60 -69 -110
-67 -111 1 -2 56 15 121 37 66 22 122 40 127 40 4 0 45 -50 92 -111 l85 -110
3 141 3 142 130 48 130 47 -130 43 c-72 23 -132 44 -135 47 -3 2 -7 64 -10
136 l-5 132 -78 -108z"/>
<path d="M2225 325 c-59 -30 -81 -86 -55 -136 13 -23 72 -54 123 -63 41 -8 59
-32 36 -47 -20 -14 -87 -4 -110 17 -18 17 -20 16 -44 -6 -34 -32 -31 -45 13
-63 123 -48 232 -13 232 75 0 36 -45 84 -86 93 -64 13 -79 21 -79 40 0 27 48
32 82 10 25 -16 26 -16 50 8 30 30 25 43 -31 68 -50 23 -91 24 -131 4z"/>
<path d="M86 307 c-55 -31 -89 -96 -83 -160 8 -93 70 -140 174 -135 43 3 71
10 90 24 37 28 38 39 5 63 l-29 20 -41 -20 c-37 -19 -43 -19 -70 -5 -63 33
-56 120 11 145 28 11 69 1 82 -19 7 -11 85 26 85 41 0 4 -22 21 -48 38 -60 38
-119 41 -176 8z"/>
<path d="M450 319 c-62 -25 -100 -85 -100 -157 0 -85 58 -148 145 -158 70 -8
131 25 163 86 28 56 28 96 -1 150 -38 72 -133 108 -207 79z m95 -81 c51 -23
65 -96 26 -132 -33 -30 -74 -30 -109 -1 -52 43 -37 114 28 138 23 8 27 8 55
-5z"/>
<path d="M1314 215 c-20 -60 -39 -114 -42 -120 -4 -5 -22 42 -42 105 l-37 115
-45 3 -46 3 40 -113 c22 -62 46 -129 53 -148 12 -35 12 -35 75 -35 l62 0 49
138 c27 77 49 143 49 147 0 4 -18 10 -40 12 l-40 4 -36 -111z"/>
<path d="M740 170 l0 -150 40 0 40 0 0 75 c0 41 4 75 8 75 4 0 34 -34 65 -75
55 -71 60 -75 98 -75 l39 0 0 150 0 150 -35 0 c-39 0 -39 -1 -35 -112 1 -27
-3 -48 -8 -48 -6 0 -36 36 -68 80 -56 79 -58 80 -101 80 l-43 0 0 -150z"/>
<path d="M1500 170 l0 -150 120 0 120 0 0 35 0 35 -80 0 c-79 0 -80 0 -80 25
0 24 2 25 75 25 l75 0 0 30 0 30 -75 0 c-73 0 -75 1 -75 25 0 25 1 25 80 25
l80 0 0 35 0 35 -120 0 -120 0 0 -150z"/>
<path d="M1830 170 l0 -150 40 0 40 0 0 61 c0 52 2 60 18 57 9 -2 31 -29 47
-60 l30 -58 48 0 47 0 -30 61 -31 60 26 30 c34 41 33 83 -4 120 -29 28 -32 29
-130 29 l-101 0 0 -150z m170 65 c19 -22 3 -35 -45 -35 -45 0 -61 11 -51 35 7
20 80 20 96 0z"/>
<path d="M2490 170 l0 -150 125 0 125 0 0 35 0 35 -85 0 c-84 0 -85 0 -85 25
0 24 2 25 75 25 l75 0 0 30 0 30 -75 0 c-73 0 -75 1 -75 25 0 25 1 25 85 25
l85 0 0 35 0 35 -125 0 -125 0 0 -150z"/>
</g>
</svg>
