<?xml version="1.0" standalone="no"?>
<!DOCTYPE svg PUBLIC "-//W3C//DTD SVG 20010904//EN"
 "http://www.w3.org/TR/2001/REC-SVG-20010904/DTD/svg10.dtd">
<svg version="1.0" xmlns="http://www.w3.org/2000/svg"
 width="300.000000pt" height="300.000000pt" viewBox="0 0 300.000000 300.000000"
 preserveAspectRatio="xMidYMid meet">
<metadata>
Created by potrace 1.10, written by Peter Selinger 2001-2011
</metadata>
<g transform="translate(0.000000,300.000000) scale(0.050000,-0.050000)"
fill="#000000" stroke="none">
<path d="M2903 5828 c-28 -20 -194 -330 -436 -815 -214 -431 -410 -804 -433
-830 -107 -115 -141 -122 -1494 -313 -432 -61 -473 -74 -515 -161 -60 -127
-23 -169 1050 -1198 339 -325 332 -262 136 -1395 -152 -873 -149 -841 -73
-918 94 -93 121 -83 830 290 952 500 891 472 1032 472 141 0 80 28 1032 -472
709 -373 736 -383 830 -290 76 77 78 47 -64 867 -171 983 -174 1008 -128 1128
39 106 67 134 864 910 471 458 495 491 441 606 -42 86 -84 100 -505 159 -1361
194 -1398 201 -1504 315 -23 26 -219 399 -433 830 -394 791 -430 847 -533 847
-28 0 -72 -14 -97 -32z"/>
</g>
</svg>
