<?xml version="1.0" standalone="no"?>
<!DOCTYPE svg PUBLIC "-//W3C//DTD SVG 20010904//EN"
 "http://www.w3.org/TR/2001/REC-SVG-20010904/DTD/svg10.dtd">
<svg version="1.0" xmlns="http://www.w3.org/2000/svg"
 width="300.000000pt" height="300.000000pt" viewBox="0 0 300.000000 300.000000"
 preserveAspectRatio="xMidYMid meet">
<metadata>
Created by potrace 1.10, written by Peter Selinger 2001-2011
</metadata>
<g transform="translate(0.000000,300.000000) scale(0.050000,-0.050000)"
fill="#000000" stroke="none">
<path d="M669 3832 c-531 -580 -780 -1199 -613 -1523 147 -287 590 -405 1054
-281 187 51 285 89 2010 796 578 237 1443 591 1924 788 481 196 872 359 870
361 -2 2 -256 -58 -564 -133 -1471 -361 -2239 -554 -2910 -731 -840 -222
-1047 -269 -1200 -268 -537 1 -739 429 -470 995 93 198 83 197 -101 -4z"/>
</g>
</svg>
