<?xml version="1.0" standalone="no"?>
<!DOCTYPE svg PUBLIC "-//W3C//DTD SVG 20010904//EN"
 "http://www.w3.org/TR/2001/REC-SVG-20010904/DTD/svg10.dtd">
<svg version="1.0" xmlns="http://www.w3.org/2000/svg"
 width="225.000000pt" height="225.000000pt" viewBox="0 0 225.000000 225.000000"
 preserveAspectRatio="xMidYMid meet">
<metadata>
Created by potrace 1.10, written by Peter Selinger 2001-2011
</metadata>
<g transform="translate(0.000000,225.000000) scale(0.050000,-0.050000)"
fill="#000000" stroke="none">
<path d="M3930 3693 c-180 -85 -361 -325 -477 -636 -242 -648 -701 -673 -1392
-76 -414 357 -737 556 -982 606 -114 24 -162 54 -186 121 -4 13 -27 4 -57 -23
l-49 -46 -37 41 c-47 52 -67 51 -89 -8 -10 -27 -51 -74 -90 -105 -39 -31 -71
-68 -71 -80 0 -13 -22 -51 -50 -83 -65 -78 -63 -108 10 -151 33 -19 70 -54 82
-76 18 -35 34 -39 107 -28 130 19 195 -13 187 -94 l-6 -65 -150 6 c-259 11
-405 -104 -312 -246 59 -89 172 -81 172 13 0 53 47 66 103 30 185 -120 489
-162 605 -83 94 64 74 71 246 -81 244 -213 488 -306 807 -308 219 -2 366 -115
463 -355 86 -211 225 -411 406 -583 154 -146 170 -168 171 -237 4 -235 69
-363 190 -372 l59 -4 13 140 c10 114 6 151 -23 200 -19 33 -40 100 -46 150 -9
72 -26 101 -84 147 -102 83 -123 137 -139 363 -20 285 -46 406 -111 523 l-58
103 115 99 c96 84 126 128 191 278 156 362 271 501 501 605 186 84 270 243
174 329 -48 43 -74 42 -193 -14z"/>
</g>
</svg>
