<?xml version="1.0" standalone="no"?>
<!DOCTYPE svg PUBLIC "-//W3C//DTD SVG 20010904//EN"
 "http://www.w3.org/TR/2001/REC-SVG-20010904/DTD/svg10.dtd">
<svg version="1.0" xmlns="http://www.w3.org/2000/svg"
 width="300.000000pt" height="300.000000pt" viewBox="0 0 300.000000 300.000000"
 preserveAspectRatio="xMidYMid meet">
<metadata>
Created by potrace 1.10, written by Peter Selinger 2001-2011
</metadata>
<g transform="translate(0.000000,300.000000) scale(0.100000,-0.100000)"
fill="#000000" stroke="none">
<path d="M153 1998 c5 -13 30 -92 217 -666 l111 -343 121 3 120 3 70 220 c38
121 98 310 133 420 l64 200 843 5 843 5 3 83 3 82 -918 0 -918 0 -114 -375
c-63 -205 -117 -379 -121 -385 -4 -6 -64 162 -134 374 l-127 386 -100 0 c-77
0 -100 -3 -96 -12z"/>
<path d="M2760 1773 c-56 -20 -68 -87 -23 -123 45 -35 113 -2 113 55 0 42 -52
82 -90 68z m54 -29 c33 -32 7 -94 -40 -94 -23 0 -54 33 -54 57 0 20 38 53 59
53 11 0 27 -7 35 -16z"/>
<path d="M2755 1705 c0 -35 15 -51 15 -17 1 16 1 16 14 0 7 -10 17 -18 21 -18
4 0 3 6 -3 13 -6 7 -10 22 -8 33 2 10 1 13 -1 7 -6 -18 -23 -16 -23 2 0 8 -3
15 -7 15 -5 0 -8 -16 -8 -35z"/>
<path d="M2370 1703 c-123 -21 -184 -80 -197 -194 -13 -110 58 -198 199 -245
109 -36 141 -70 102 -108 -18 -18 -76 -21 -105 -5 -11 5 -24 21 -29 35 -9 23
-14 24 -96 24 l-87 0 6 -37 c11 -63 56 -124 116 -155 46 -24 65 -28 136 -28
71 0 90 4 136 28 43 22 59 38 81 81 32 60 37 139 15 194 -20 47 -86 102 -153
126 -102 37 -135 54 -146 75 -9 16 -7 23 12 38 12 10 32 18 44 18 27 0 66 -27
66 -46 0 -11 18 -14 89 -14 l89 0 -9 43 c-25 113 -148 191 -269 170z"/>
<path d="M1095 1678 c-2 -7 -45 -155 -95 -328 -50 -173 -93 -323 -96 -332 -5
-16 3 -18 84 -18 l90 0 11 45 11 45 85 0 c89 0 94 -2 104 -54 l7 -31 91 -3 92
-3 -14 48 c-7 26 -48 167 -90 313 -42 146 -80 280 -86 298 l-11 32 -89 0 c-63
0 -91 -4 -94 -12z m128 -336 c28 -116 28 -115 -44 -110 -51 3 -49 -7 -17 136
11 51 24 90 28 85 4 -4 19 -54 33 -111z"/>
<path d="M1547 1684 c-4 -4 -7 -160 -7 -346 l0 -338 91 0 92 0 -5 177 c-4 144
-3 173 8 159 7 -10 50 -89 96 -177 l83 -159 88 0 87 0 0 345 0 345 -85 0 -85
0 -2 -182 -3 -183 -96 180 -96 180 -79 3 c-44 1 -83 0 -87 -4z"/>
</g>
</svg>
